<svg width="12.25" height="8.74996" viewBox="0 0 12.25 8.74996" fill="none" xmlns="http://www.w3.org/2000/svg">
<g id="Container">
<path id="Icon" d="M2.91665 8.74996C2.11045 8.74996 1.4228 8.46988 0.85368 7.90974C0.28456 7.34959 0 6.66642 0 5.86023C0 5.14678 0.228472 4.51222 0.685417 3.95656C1.14236 3.4009 1.72532 3.07221 2.43429 2.97051C2.62125 2.0985 3.05968 1.38542 3.74959 0.83125C4.43949 0.277083 5.23128 0 6.12498 0C7.18021 0 8.07596 0.368134 8.81222 1.1044C9.54849 1.84067 9.91662 2.73642 9.91662 3.79165V4.08333H10.0961C10.7109 4.13119 11.2235 4.37836 11.6341 4.82483C12.0447 5.2713 12.25 5.80191 12.25 6.41665C12.25 7.06728 12.0237 7.61882 11.5713 8.07128C11.1188 8.52373 10.5673 8.74996 9.91665 8.74996H2.91665V8.74996M2.91665 7.87498H9.91665C10.325 7.87498 10.6701 7.73401 10.9521 7.45206C11.234 7.17012 11.375 6.82498 11.375 6.41665C11.375 6.00831 11.234 5.66317 10.9521 5.38123C10.6701 5.09928 10.325 4.95831 9.91665 4.95831H9.04165V3.79165C9.04165 2.9847 8.75727 2.29685 8.18852 1.7281C7.61977 1.15935 6.93192 0.874979 6.12498 0.874979C5.31803 0.874979 4.63019 1.15935 4.06144 1.7281C3.49269 2.29685 3.20831 2.9847 3.20831 3.79165V3.79165H2.91665C2.35276 3.79165 1.87151 3.99095 1.4729 4.38956C1.07428 4.78817 0.874979 5.26942 0.874979 5.83331C0.874979 6.3972 1.07428 6.87845 1.4729 7.27706C1.87151 7.67567 2.35276 7.87498 2.91665 7.87498V7.87498M6.12498 4.37498V4.37498V4.37498V4.37498V4.37498V4.37498V4.37498V4.37498V4.37498V4.37498V4.37498V4.37498V4.37498V4.37498V4.37498V4.37498V4.37498V4.37498V4.37498" fill="var(--fill-0, #72796E)"/>
</g>
</svg>
