<svg width="16" height="21" viewBox="0 0 16 21" fill="none" xmlns="http://www.w3.org/2000/svg">
<g id="Container">
<path id="Icon" d="M8 21C7.06667 21 6.1875 20.8542 5.3625 20.5625C4.5375 20.2708 3.78333 19.8583 3.1 19.325L1.7 20.7C1.51667 20.8833 1.28333 20.975 1 20.975C0.716667 20.975 0.483333 20.8833 0.3 20.7C0.116667 20.5167 0.025 20.2833 0.025 20C0.025 19.7167 0.116667 19.4833 0.3 19.3L1.675 17.925C1.14167 17.2417 0.729167 16.4833 0.4375 15.65C0.145833 14.8167 0 13.9333 0 13C0 10.7667 0.775 8.875 2.325 7.325C3.875 5.775 5.76667 5 8 5H16V13C16 15.2333 15.225 17.125 13.675 18.675C12.125 20.225 10.2333 21 8 21V21M8 19C9.66667 19 11.0833 18.4167 12.25 17.25C13.4167 16.0833 14 14.6667 14 13V7H8C6.33333 7 4.91667 7.58333 3.75 8.75C2.58333 9.91667 2 11.3333 2 13C2 13.65 2.1 14.2708 2.3 14.8625C2.5 15.4542 2.775 15.9917 3.125 16.475L8.3 11.3C8.48333 11.1167 8.71667 11.025 9 11.025C9.28333 11.025 9.51667 11.1167 9.7 11.3C9.9 11.5 10 11.7375 10 12.0125C10 12.2875 9.9 12.525 9.7 12.725L4.525 17.9C5.00833 18.25 5.54583 18.5208 6.1375 18.7125C6.72917 18.9042 7.35 19 8 19V19M8 13V13V13V13V13V13V13V13V13V13V13V13V13V13V13V13V13V13" fill="var(--fill-0, #064E3B)"/>
</g>
</svg>
