<svg width="8.74996" height="10.9935" viewBox="0 0 8.74996 10.9935" fill="none" xmlns="http://www.w3.org/2000/svg">
<g id="Container">
<path id="Icon" d="M4.51857 9.44548C4.62028 9.43576 4.70403 9.39799 4.76985 9.33218C4.83566 9.26637 4.86856 9.18635 4.86856 9.09212C4.86856 8.98219 4.83229 8.89525 4.75975 8.83131C4.68721 8.76737 4.59597 8.74026 4.48604 8.74998C4.08742 8.77915 3.65329 8.66229 3.18363 8.39942C2.71397 8.13654 2.42081 7.67941 2.30414 7.02802C2.2847 6.92856 2.243 6.8504 2.17906 6.79357C2.11512 6.73673 2.03903 6.70831 1.95078 6.70831C1.84459 6.70831 1.75615 6.74813 1.68548 6.82778C1.61481 6.90743 1.59219 7.0097 1.61761 7.13459C1.77541 7.98191 2.15682 8.58768 2.76184 8.95189C3.36686 9.3161 3.95244 9.48063 4.51857 9.44548V9.44548M4.37498 10.9935C3.12531 10.9935 2.08372 10.5646 1.25023 9.70685C0.416745 8.84905 0 7.78074 0 6.50189C0 5.59699 0.362151 4.60514 1.08645 3.52635C1.81075 2.44756 2.90693 1.27211 4.37498 0C5.84303 1.27211 6.9392 2.44756 7.6635 3.52635C8.38781 4.60514 8.74996 5.59699 8.74996 6.50189C8.74996 7.78074 8.33321 8.84905 7.49972 9.70685C6.66623 10.5646 5.62465 10.9935 4.37498 10.9935V10.9935M4.37498 10.1186C5.38609 10.1186 6.2222 9.77585 6.88331 9.09044C7.54442 8.40502 7.87498 7.54217 7.87498 6.50189C7.87498 5.79217 7.58088 4.99009 6.99269 4.09564C6.40449 3.2012 5.53192 2.22412 4.37498 1.1644C3.21803 2.22412 2.34546 3.2012 1.75727 4.09564C1.16908 4.99009 0.874979 5.79217 0.874979 6.50189C0.874979 7.54217 1.20553 8.40502 1.86665 9.09044C2.52776 9.77585 3.36387 10.1186 4.37498 10.1186V10.1186M4.37498 5.49677V5.49677V5.49677V5.49677V5.49677V5.49677V5.49677V5.49677V5.49677V5.49677" fill="var(--fill-0, #72796E)"/>
</g>
</svg>
