<svg width="12.2275" height="12.2275" viewBox="0 0 12.2275 12.2275" fill="none" xmlns="http://www.w3.org/2000/svg">
<g id="Container">
<path id="Icon" d="M5.67627 2.15383V0H6.55125V2.15383H5.67627V2.15383M9.21887 3.62337L8.61873 3.02323L10.123 1.46955L10.7434 2.09886L9.21887 3.62337V3.62337M10.0737 6.55125V5.67627H12.2275V6.55125H10.0737V6.55125M5.67627 12.2275V10.0793H6.55125V12.2275H5.67627V12.2275M3.01986 3.59982L1.46955 2.10447L2.10447 1.48974L3.62898 3.00865L3.01986 3.59982V3.59982M10.1141 10.758L8.61873 9.20429L9.2099 8.61873L10.7378 10.1051L10.1141 10.758V10.758M0 6.55125V5.67627H2.15383V6.55125H0V6.55125M2.09886 10.758L1.48974 10.123L2.99406 8.61873L3.3104 8.91712L3.63235 9.22448L2.09886 10.758V10.758M6.11376 9.32207C5.22381 9.32207 4.4666 9.00984 3.84214 8.38538C3.21768 7.76092 2.90545 7.00371 2.90545 6.11376C2.90545 5.22381 3.21768 4.4666 3.84214 3.84214C4.4666 3.21768 5.22381 2.90545 6.11376 2.90545C7.00371 2.90545 7.76092 3.21768 8.38538 3.84214C9.00984 4.4666 9.32207 5.22381 9.32207 6.11376C9.32207 7.00371 9.00984 7.76092 8.38538 8.38538C7.76092 9.00984 7.00371 9.32207 6.11376 9.32207V9.32207M6.11376 8.44709C6.75543 8.44709 7.30473 8.21862 7.76168 7.76168C8.21862 7.30473 8.44709 6.75543 8.44709 6.11376C8.44709 5.47209 8.21862 4.92279 7.76168 4.46584C7.30473 4.0089 6.75543 3.78043 6.11376 3.78043C5.47209 3.78043 4.92279 4.0089 4.46584 4.46584C4.0089 4.92279 3.78043 5.47209 3.78043 6.11376C3.78043 6.75543 4.0089 7.30473 4.46584 7.76168C4.92279 8.21862 5.47209 8.44709 6.11376 8.44709V8.44709M6.11376 6.11376V6.11376V6.11376V6.11376V6.11376V6.11376V6.11376V6.11376V6.11376V6.11376" fill="var(--fill-0, #72796E)"/>
</g>
</svg>
