<svg width="12.5416" height="12.5416" viewBox="0 0 12.5416 12.5416" fill="none" xmlns="http://www.w3.org/2000/svg">
<g id="Container">
<path id="Icon" d="M6.27082 8.02082C6.75693 8.02082 7.17013 7.85068 7.51041 7.51041C7.85068 7.17013 8.02082 6.75693 8.02082 6.27082C8.02082 5.78471 7.85068 5.37152 7.51041 5.03124C7.17013 4.69096 6.75693 4.52082 6.27082 4.52082C5.78471 4.52082 5.37152 4.69096 5.03124 5.03124C4.69096 5.37152 4.52082 5.78471 4.52082 6.27082C4.52082 6.75693 4.69096 7.17013 5.03124 7.51041C5.37152 7.85068 5.78471 8.02082 6.27082 8.02082V8.02082M6.27082 8.8958C5.54241 8.8958 4.92281 8.64041 4.41202 8.12962C3.90124 7.61884 3.64584 6.99924 3.64584 6.27082C3.64584 5.54241 3.90124 4.92281 4.41202 4.41202C4.92281 3.90124 5.54241 3.64584 6.27082 3.64584C6.99924 3.64584 7.61884 3.90124 8.12962 4.41202C8.64041 4.92281 8.8958 5.54241 8.8958 6.27082C8.8958 6.99924 8.64041 7.61884 8.12962 8.12962C7.61884 8.64041 6.99924 8.8958 6.27082 8.8958V8.8958M2.18749 6.70831H0V5.83333H2.18749V6.70831V6.70831M12.5416 6.70831H10.3542V5.83333H12.5416V6.70831V6.70831M5.83333 2.18749V0H6.70831V2.18749H5.83333V2.18749M5.83333 12.5416V10.3542H6.70831V12.5416H5.83333V12.5416M3.10512 3.69069L1.73879 2.37146L2.35688 1.7242L3.67274 3.07596L3.10512 3.69069V3.69069M10.1848 10.8174L8.85993 9.45671L9.43652 8.85096L10.8029 10.1702L10.1848 10.8174V10.8174M8.85096 3.10512L10.1702 1.73879L10.8174 2.35688L9.46569 3.67274L8.85096 3.10512V3.10512M1.7242 10.1848L3.08493 8.85993L3.67947 9.43652L2.36585 10.8085L1.7242 10.1848V10.1848M6.27082 6.27082V6.27082V6.27082V6.27082V6.27082V6.27082V6.27082V6.27082V6.27082V6.27082" fill="var(--fill-0, #72796E)"/>
</g>
</svg>
